%TF.GenerationSoftware,KiCad,Pcbnew,(5.1.4)-1*%
%TF.CreationDate,2020-06-18T19:46:46-04:00*%
%TF.ProjectId,sixtyfive,73697874-7966-4697-9665-2e6b69636164,rev?*%
%TF.SameCoordinates,Original*%
%TF.FileFunction,Legend,Top*%
%TF.FilePolarity,Positive*%
%FSLAX46Y46*%
G04 Gerber Fmt 4.6, Leading zero omitted, Abs format (unit mm)*
G04 Created by KiCad (PCBNEW (5.1.4)-1) date 2020-06-18 19:46:46*
%MOMM*%
%LPD*%
G04 APERTURE LIST*
%ADD10C,0.100000*%
%ADD11C,0.110000*%
%ADD12C,0.120000*%
%ADD13C,0.150000*%
%ADD14C,0.010000*%
%ADD15C,2.082800*%
%ADD16C,3.100000*%
%ADD17C,4.087800*%
%ADD18C,1.850000*%
%ADD19C,3.148000*%
%ADD20C,2.300000*%
%ADD21O,1.000000X1.800000*%
%ADD22O,1.000000X2.500000*%
%ADD23C,0.800000*%
%ADD24R,1.800000X1.800000*%
%ADD25O,1.800000X1.800000*%
G04 APERTURE END LIST*
D10*
G36*
X365379000Y-238125000D02*
G01*
X321691000Y-336677000D01*
X274447000Y-336804000D01*
X322199000Y-237998000D01*
X365379000Y-238125000D01*
G37*
X365379000Y-238125000D02*
X321691000Y-336677000D01*
X274447000Y-336804000D01*
X322199000Y-237998000D01*
X365379000Y-238125000D01*
D11*
X340664857Y-332186000D02*
X340607714Y-332157428D01*
X340522000Y-332157428D01*
X340436285Y-332186000D01*
X340379142Y-332243142D01*
X340350571Y-332300285D01*
X340322000Y-332414571D01*
X340322000Y-332500285D01*
X340350571Y-332614571D01*
X340379142Y-332671714D01*
X340436285Y-332728857D01*
X340522000Y-332757428D01*
X340579142Y-332757428D01*
X340664857Y-332728857D01*
X340693428Y-332700285D01*
X340693428Y-332500285D01*
X340579142Y-332500285D01*
X340950571Y-332757428D02*
X340950571Y-332157428D01*
X341293428Y-332757428D01*
X341293428Y-332157428D01*
X341579142Y-332757428D02*
X341579142Y-332157428D01*
X341722000Y-332157428D01*
X341807714Y-332186000D01*
X341864857Y-332243142D01*
X341893428Y-332300285D01*
X341922000Y-332414571D01*
X341922000Y-332500285D01*
X341893428Y-332614571D01*
X341864857Y-332671714D01*
X341807714Y-332728857D01*
X341722000Y-332757428D01*
X341579142Y-332757428D01*
X342776285Y-331649428D02*
X343147714Y-331649428D01*
X342947714Y-331878000D01*
X343033428Y-331878000D01*
X343090571Y-331906571D01*
X343119142Y-331935142D01*
X343147714Y-331992285D01*
X343147714Y-332135142D01*
X343119142Y-332192285D01*
X343090571Y-332220857D01*
X343033428Y-332249428D01*
X342862000Y-332249428D01*
X342804857Y-332220857D01*
X342776285Y-332192285D01*
X343404857Y-332192285D02*
X343433428Y-332220857D01*
X343404857Y-332249428D01*
X343376285Y-332220857D01*
X343404857Y-332192285D01*
X343404857Y-332249428D01*
X343633428Y-331649428D02*
X344004857Y-331649428D01*
X343804857Y-331878000D01*
X343890571Y-331878000D01*
X343947714Y-331906571D01*
X343976285Y-331935142D01*
X344004857Y-331992285D01*
X344004857Y-332135142D01*
X343976285Y-332192285D01*
X343947714Y-332220857D01*
X343890571Y-332249428D01*
X343719142Y-332249428D01*
X343662000Y-332220857D01*
X343633428Y-332192285D01*
X344176285Y-331649428D02*
X344376285Y-332249428D01*
X344576285Y-331649428D01*
X342676285Y-325137428D02*
X342676285Y-324537428D01*
X343019142Y-325137428D01*
X343019142Y-324537428D01*
X343647714Y-325137428D02*
X343447714Y-324851714D01*
X343304857Y-325137428D02*
X343304857Y-324537428D01*
X343533428Y-324537428D01*
X343590571Y-324566000D01*
X343619142Y-324594571D01*
X343647714Y-324651714D01*
X343647714Y-324737428D01*
X343619142Y-324794571D01*
X343590571Y-324823142D01*
X343533428Y-324851714D01*
X343304857Y-324851714D01*
X343876285Y-325108857D02*
X343962000Y-325137428D01*
X344104857Y-325137428D01*
X344162000Y-325108857D01*
X344190571Y-325080285D01*
X344219142Y-325023142D01*
X344219142Y-324966000D01*
X344190571Y-324908857D01*
X344162000Y-324880285D01*
X344104857Y-324851714D01*
X343990571Y-324823142D01*
X343933428Y-324794571D01*
X343904857Y-324766000D01*
X343876285Y-324708857D01*
X343876285Y-324651714D01*
X343904857Y-324594571D01*
X343933428Y-324566000D01*
X343990571Y-324537428D01*
X344133428Y-324537428D01*
X344219142Y-324566000D01*
X344390571Y-324537428D02*
X344733428Y-324537428D01*
X344562000Y-325137428D02*
X344562000Y-324537428D01*
X339764857Y-325616857D02*
X339850571Y-325645428D01*
X339993428Y-325645428D01*
X340050571Y-325616857D01*
X340079142Y-325588285D01*
X340107714Y-325531142D01*
X340107714Y-325474000D01*
X340079142Y-325416857D01*
X340050571Y-325388285D01*
X339993428Y-325359714D01*
X339879142Y-325331142D01*
X339822000Y-325302571D01*
X339793428Y-325274000D01*
X339764857Y-325216857D01*
X339764857Y-325159714D01*
X339793428Y-325102571D01*
X339822000Y-325074000D01*
X339879142Y-325045428D01*
X340022000Y-325045428D01*
X340107714Y-325074000D01*
X340307714Y-325045428D02*
X340450571Y-325645428D01*
X340564857Y-325216857D01*
X340679142Y-325645428D01*
X340822000Y-325045428D01*
X341393428Y-325588285D02*
X341364857Y-325616857D01*
X341279142Y-325645428D01*
X341222000Y-325645428D01*
X341136285Y-325616857D01*
X341079142Y-325559714D01*
X341050571Y-325502571D01*
X341022000Y-325388285D01*
X341022000Y-325302571D01*
X341050571Y-325188285D01*
X341079142Y-325131142D01*
X341136285Y-325074000D01*
X341222000Y-325045428D01*
X341279142Y-325045428D01*
X341364857Y-325074000D01*
X341393428Y-325102571D01*
X341936285Y-325645428D02*
X341650571Y-325645428D01*
X341650571Y-325045428D01*
X342136285Y-325645428D02*
X342136285Y-325045428D01*
X342479142Y-325645428D02*
X342222000Y-325302571D01*
X342479142Y-325045428D02*
X342136285Y-325388285D01*
X337183571Y-325108857D02*
X337269285Y-325137428D01*
X337412142Y-325137428D01*
X337469285Y-325108857D01*
X337497857Y-325080285D01*
X337526428Y-325023142D01*
X337526428Y-324966000D01*
X337497857Y-324908857D01*
X337469285Y-324880285D01*
X337412142Y-324851714D01*
X337297857Y-324823142D01*
X337240714Y-324794571D01*
X337212142Y-324766000D01*
X337183571Y-324708857D01*
X337183571Y-324651714D01*
X337212142Y-324594571D01*
X337240714Y-324566000D01*
X337297857Y-324537428D01*
X337440714Y-324537428D01*
X337526428Y-324566000D01*
X337726428Y-324537428D02*
X337869285Y-325137428D01*
X337983571Y-324708857D01*
X338097857Y-325137428D01*
X338240714Y-324537428D01*
X338469285Y-325137428D02*
X338469285Y-324537428D01*
X338612142Y-324537428D01*
X338697857Y-324566000D01*
X338755000Y-324623142D01*
X338783571Y-324680285D01*
X338812142Y-324794571D01*
X338812142Y-324880285D01*
X338783571Y-324994571D01*
X338755000Y-325051714D01*
X338697857Y-325108857D01*
X338612142Y-325137428D01*
X338469285Y-325137428D01*
X339069285Y-325137428D02*
X339069285Y-324537428D01*
X339469285Y-324537428D02*
X339583571Y-324537428D01*
X339640714Y-324566000D01*
X339697857Y-324623142D01*
X339726428Y-324737428D01*
X339726428Y-324937428D01*
X339697857Y-325051714D01*
X339640714Y-325108857D01*
X339583571Y-325137428D01*
X339469285Y-325137428D01*
X339412142Y-325108857D01*
X339355000Y-325051714D01*
X339326428Y-324937428D01*
X339326428Y-324737428D01*
X339355000Y-324623142D01*
X339412142Y-324566000D01*
X339469285Y-324537428D01*
X337997857Y-331678000D02*
X337940714Y-331649428D01*
X337855000Y-331649428D01*
X337769285Y-331678000D01*
X337712142Y-331735142D01*
X337683571Y-331792285D01*
X337655000Y-331906571D01*
X337655000Y-331992285D01*
X337683571Y-332106571D01*
X337712142Y-332163714D01*
X337769285Y-332220857D01*
X337855000Y-332249428D01*
X337912142Y-332249428D01*
X337997857Y-332220857D01*
X338026428Y-332192285D01*
X338026428Y-331992285D01*
X337912142Y-331992285D01*
X338283571Y-332249428D02*
X338283571Y-331649428D01*
X338626428Y-332249428D01*
X338626428Y-331649428D01*
X338912142Y-332249428D02*
X338912142Y-331649428D01*
X339055000Y-331649428D01*
X339140714Y-331678000D01*
X339197857Y-331735142D01*
X339226428Y-331792285D01*
X339255000Y-331906571D01*
X339255000Y-331992285D01*
X339226428Y-332106571D01*
X339197857Y-332163714D01*
X339140714Y-332220857D01*
X339055000Y-332249428D01*
X338912142Y-332249428D01*
D12*
%TO.C,USB1*%
X294199000Y-233539000D02*
X285009000Y-233539000D01*
X294079000Y-242949000D02*
X285129000Y-242949000D01*
X285009000Y-236269000D02*
X285009000Y-233539000D01*
X294199000Y-236269000D02*
X294199000Y-233539000D01*
X285009000Y-239869000D02*
X285009000Y-238969000D01*
X294199000Y-239869000D02*
X294199000Y-238969000D01*
%TO.C,*%
D13*
%TO.C,USB1*%
X287865904Y-243521380D02*
X287865904Y-244330904D01*
X287913523Y-244426142D01*
X287961142Y-244473761D01*
X288056380Y-244521380D01*
X288246857Y-244521380D01*
X288342095Y-244473761D01*
X288389714Y-244426142D01*
X288437333Y-244330904D01*
X288437333Y-243521380D01*
X288865904Y-244473761D02*
X289008761Y-244521380D01*
X289246857Y-244521380D01*
X289342095Y-244473761D01*
X289389714Y-244426142D01*
X289437333Y-244330904D01*
X289437333Y-244235666D01*
X289389714Y-244140428D01*
X289342095Y-244092809D01*
X289246857Y-244045190D01*
X289056380Y-243997571D01*
X288961142Y-243949952D01*
X288913523Y-243902333D01*
X288865904Y-243807095D01*
X288865904Y-243711857D01*
X288913523Y-243616619D01*
X288961142Y-243569000D01*
X289056380Y-243521380D01*
X289294476Y-243521380D01*
X289437333Y-243569000D01*
X290199238Y-243997571D02*
X290342095Y-244045190D01*
X290389714Y-244092809D01*
X290437333Y-244188047D01*
X290437333Y-244330904D01*
X290389714Y-244426142D01*
X290342095Y-244473761D01*
X290246857Y-244521380D01*
X289865904Y-244521380D01*
X289865904Y-243521380D01*
X290199238Y-243521380D01*
X290294476Y-243569000D01*
X290342095Y-243616619D01*
X290389714Y-243711857D01*
X290389714Y-243807095D01*
X290342095Y-243902333D01*
X290294476Y-243949952D01*
X290199238Y-243997571D01*
X289865904Y-243997571D01*
X291389714Y-244521380D02*
X290818285Y-244521380D01*
X291104000Y-244521380D02*
X291104000Y-243521380D01*
X291008761Y-243664238D01*
X290913523Y-243759476D01*
X290818285Y-243807095D01*
%TD*%
%LPC*%
D14*
%TO.C,G\002A\002A\002A*%
G36*
X565911988Y-244601988D02*
G01*
X567519208Y-246210880D01*
X565361560Y-248369773D01*
X563203912Y-250528667D01*
X567519762Y-254847007D01*
X565932884Y-256433884D01*
X564346007Y-258020762D01*
X560027667Y-253704912D01*
X557889222Y-255842122D01*
X557394900Y-256335011D01*
X556938592Y-256787786D01*
X556534030Y-257186995D01*
X556194941Y-257519182D01*
X555935056Y-257770895D01*
X555768105Y-257928680D01*
X555708220Y-257979333D01*
X555639482Y-257921862D01*
X555467475Y-257759879D01*
X555208245Y-257509027D01*
X554877839Y-257184949D01*
X554492303Y-256803290D01*
X554079093Y-256391115D01*
X552492525Y-254802896D01*
X554651441Y-252645226D01*
X556810357Y-250487555D01*
X554651227Y-248327227D01*
X552492097Y-246166898D01*
X554080433Y-244580212D01*
X555668770Y-242993525D01*
X557826441Y-245152441D01*
X559984111Y-247311357D01*
X562144440Y-245152227D01*
X564304768Y-242993097D01*
X565911988Y-244601988D01*
X565911988Y-244601988D01*
G37*
X565911988Y-244601988D02*
X567519208Y-246210880D01*
X565361560Y-248369773D01*
X563203912Y-250528667D01*
X567519762Y-254847007D01*
X565932884Y-256433884D01*
X564346007Y-258020762D01*
X560027667Y-253704912D01*
X557889222Y-255842122D01*
X557394900Y-256335011D01*
X556938592Y-256787786D01*
X556534030Y-257186995D01*
X556194941Y-257519182D01*
X555935056Y-257770895D01*
X555768105Y-257928680D01*
X555708220Y-257979333D01*
X555639482Y-257921862D01*
X555467475Y-257759879D01*
X555208245Y-257509027D01*
X554877839Y-257184949D01*
X554492303Y-256803290D01*
X554079093Y-256391115D01*
X552492525Y-254802896D01*
X554651441Y-252645226D01*
X556810357Y-250487555D01*
X554651227Y-248327227D01*
X552492097Y-246166898D01*
X554080433Y-244580212D01*
X555668770Y-242993525D01*
X557826441Y-245152441D01*
X559984111Y-247311357D01*
X562144440Y-245152227D01*
X564304768Y-242993097D01*
X565911988Y-244601988D01*
%TD*%
D15*
%TO.C,J2*%
X338562950Y-327107550D03*
X338562950Y-329647550D03*
X341102950Y-327361550D03*
X341102950Y-329901550D03*
X343642950Y-327107550D03*
X343642950Y-329647550D03*
%TD*%
D16*
%TO.C,MX60*%
X400558000Y-322027550D03*
D17*
X398018000Y-327107550D03*
D16*
X394208000Y-324567550D03*
D18*
X392938000Y-327107550D03*
X403098000Y-327107550D03*
D19*
X448017900Y-334092550D03*
X348018100Y-334092550D03*
D17*
X448017900Y-318852550D03*
X348018100Y-318852550D03*
%TD*%
D20*
%TO.C,M2*%
X290620450Y-295484550D03*
%TD*%
%TO.C,M2*%
X557510950Y-314915550D03*
%TD*%
%TO.C,M2*%
X314369450Y-326726550D03*
%TD*%
%TO.C,M2*%
X457625450Y-326726550D03*
%TD*%
%TO.C,M2*%
X548366950Y-279482550D03*
%TD*%
%TO.C,M2*%
X516616950Y-241382550D03*
%TD*%
%TO.C,M2*%
X306431950Y-241382550D03*
%TD*%
D17*
%TO.C,MX67*%
X376631200Y-318852550D03*
X352755200Y-318852550D03*
D19*
X376631200Y-334092550D03*
X352755200Y-334092550D03*
D18*
X359613200Y-327107550D03*
X369773200Y-327107550D03*
D16*
X368503200Y-329647550D03*
D17*
X364693200Y-327107550D03*
D16*
X362153200Y-332187550D03*
%TD*%
D18*
%TO.C,MX58*%
X307860700Y-327107550D03*
X297700700Y-327107550D03*
D16*
X298970700Y-324567550D03*
D17*
X302780700Y-327107550D03*
D16*
X305320700Y-322027550D03*
%TD*%
D18*
%TO.C,MX57*%
X284048200Y-327107550D03*
X273888200Y-327107550D03*
D16*
X275158200Y-324567550D03*
D17*
X278968200Y-327107550D03*
D16*
X281508200Y-322027550D03*
%TD*%
D17*
%TO.C,MX68*%
X448068700Y-318852550D03*
X424192700Y-318852550D03*
D19*
X448068700Y-334092550D03*
X424192700Y-334092550D03*
D18*
X431050700Y-327107550D03*
X441210700Y-327107550D03*
D16*
X439940700Y-329647550D03*
D17*
X436130700Y-327107550D03*
D16*
X433590700Y-332187550D03*
%TD*%
D18*
%TO.C,MX52*%
X476929450Y-308057550D03*
X466769450Y-308057550D03*
D16*
X468039450Y-305517550D03*
D17*
X471849450Y-308057550D03*
D16*
X474389450Y-302977550D03*
%TD*%
D18*
%TO.C,MX63*%
X529316950Y-327107550D03*
X519156950Y-327107550D03*
D16*
X520426950Y-324567550D03*
D17*
X524236950Y-327107550D03*
D16*
X526776950Y-322027550D03*
%TD*%
D18*
%TO.C,MX65*%
X567416950Y-327107550D03*
X557256950Y-327107550D03*
D16*
X558526950Y-324567550D03*
D17*
X562336950Y-327107550D03*
D16*
X564876950Y-322027550D03*
%TD*%
D18*
%TO.C,MX54*%
X522173200Y-308057550D03*
X512013200Y-308057550D03*
D16*
X513283200Y-305517550D03*
D17*
X517093200Y-308057550D03*
D16*
X519633200Y-302977550D03*
%TD*%
D18*
%TO.C,MX8*%
X415016950Y-250907550D03*
X404856950Y-250907550D03*
D16*
X406126950Y-248367550D03*
D17*
X409936950Y-250907550D03*
D16*
X412476950Y-245827550D03*
%TD*%
D18*
%TO.C,MX15*%
X286429450Y-269957550D03*
X276269450Y-269957550D03*
D16*
X277539450Y-267417550D03*
D17*
X281349450Y-269957550D03*
D16*
X283889450Y-264877550D03*
%TD*%
D18*
%TO.C,MX69*%
X397713200Y-327107550D03*
X407873200Y-327107550D03*
D16*
X406603200Y-329647550D03*
D17*
X402793200Y-327107550D03*
D16*
X400253200Y-332187550D03*
%TD*%
D21*
%TO.C,USB1*%
X285279000Y-237909000D03*
X293929000Y-237909000D03*
D22*
X285279000Y-241289000D03*
X293929000Y-241289000D03*
D23*
X289179000Y-240919000D03*
X286629000Y-240919000D03*
X287479000Y-240919000D03*
X288329000Y-240919000D03*
X292579000Y-240919000D03*
X290879000Y-240919000D03*
X290029000Y-240919000D03*
X291729000Y-240919000D03*
X286629000Y-242269000D03*
X287479000Y-242269000D03*
X288329000Y-242269000D03*
X289179000Y-242269000D03*
X290029000Y-242269000D03*
X290879000Y-242269000D03*
X291729000Y-242269000D03*
X292579000Y-242269000D03*
%TD*%
D18*
%TO.C,MX66*%
X567416950Y-289007550D03*
X557256950Y-289007550D03*
D16*
X558526950Y-286467550D03*
D17*
X562336950Y-289007550D03*
D16*
X564876950Y-283927550D03*
%TD*%
D18*
%TO.C,MX64*%
X548366950Y-327107550D03*
X538206950Y-327107550D03*
D16*
X539476950Y-324567550D03*
D17*
X543286950Y-327107550D03*
D16*
X545826950Y-322027550D03*
%TD*%
D18*
%TO.C,MX62*%
X498360700Y-327107550D03*
X488200700Y-327107550D03*
D16*
X489470700Y-324567550D03*
D17*
X493280700Y-327107550D03*
D16*
X495820700Y-322027550D03*
%TD*%
D18*
%TO.C,MX61*%
X474548200Y-327107550D03*
X464388200Y-327107550D03*
D16*
X465658200Y-324567550D03*
D17*
X469468200Y-327107550D03*
D16*
X472008200Y-322027550D03*
%TD*%
D18*
%TO.C,MX59*%
X331673200Y-327107550D03*
X321513200Y-327107550D03*
D16*
X322783200Y-324567550D03*
D17*
X326593200Y-327107550D03*
D16*
X329133200Y-322027550D03*
%TD*%
D18*
%TO.C,MX56*%
X567416950Y-308057550D03*
X557256950Y-308057550D03*
D16*
X558526950Y-305517550D03*
D17*
X562336950Y-308057550D03*
D16*
X564876950Y-302977550D03*
%TD*%
D18*
%TO.C,MX55*%
X548366950Y-308057550D03*
X538206950Y-308057550D03*
D16*
X539476950Y-305517550D03*
D17*
X543286950Y-308057550D03*
D16*
X545826950Y-302977550D03*
%TD*%
D18*
%TO.C,MX53*%
X495979450Y-308057550D03*
X485819450Y-308057550D03*
D16*
X487089450Y-305517550D03*
D17*
X490899450Y-308057550D03*
D16*
X493439450Y-302977550D03*
%TD*%
D18*
%TO.C,MX51*%
X457879450Y-308057550D03*
X447719450Y-308057550D03*
D16*
X448989450Y-305517550D03*
D17*
X452799450Y-308057550D03*
D16*
X455339450Y-302977550D03*
%TD*%
D18*
%TO.C,MX50*%
X438829450Y-308057550D03*
X428669450Y-308057550D03*
D16*
X429939450Y-305517550D03*
D17*
X433749450Y-308057550D03*
D16*
X436289450Y-302977550D03*
%TD*%
D18*
%TO.C,MX49*%
X419779450Y-308057550D03*
X409619450Y-308057550D03*
D16*
X410889450Y-305517550D03*
D17*
X414699450Y-308057550D03*
D16*
X417239450Y-302977550D03*
%TD*%
D18*
%TO.C,MX48*%
X400729450Y-308057550D03*
X390569450Y-308057550D03*
D16*
X391839450Y-305517550D03*
D17*
X395649450Y-308057550D03*
D16*
X398189450Y-302977550D03*
%TD*%
D18*
%TO.C,MX47*%
X381679450Y-308057550D03*
X371519450Y-308057550D03*
D16*
X372789450Y-305517550D03*
D17*
X376599450Y-308057550D03*
D16*
X379139450Y-302977550D03*
%TD*%
D18*
%TO.C,MX46*%
X362629450Y-308057550D03*
X352469450Y-308057550D03*
D16*
X353739450Y-305517550D03*
D17*
X357549450Y-308057550D03*
D16*
X360089450Y-302977550D03*
%TD*%
D18*
%TO.C,MX45*%
X343579450Y-308057550D03*
X333419450Y-308057550D03*
D16*
X334689450Y-305517550D03*
D17*
X338499450Y-308057550D03*
D16*
X341039450Y-302977550D03*
%TD*%
D18*
%TO.C,MX44*%
X324529450Y-308057550D03*
X314369450Y-308057550D03*
D16*
X315639450Y-305517550D03*
D17*
X319449450Y-308057550D03*
D16*
X321989450Y-302977550D03*
%TD*%
D17*
%TO.C,MX43*%
X276555200Y-316312550D03*
X300431200Y-316312550D03*
D19*
X276555200Y-301072550D03*
X300431200Y-301072550D03*
D18*
X293573200Y-308057550D03*
X283413200Y-308057550D03*
D16*
X284683200Y-305517550D03*
D17*
X288493200Y-308057550D03*
D16*
X291033200Y-302977550D03*
%TD*%
D18*
%TO.C,MX42*%
X567416950Y-269957550D03*
X557256950Y-269957550D03*
D16*
X558526950Y-267417550D03*
D17*
X562336950Y-269957550D03*
D16*
X564876950Y-264877550D03*
%TD*%
D17*
%TO.C,MX41*%
X519526450Y-297262550D03*
X543402450Y-297262550D03*
D19*
X519526450Y-282022550D03*
X543402450Y-282022550D03*
D18*
X536544450Y-289007550D03*
X526384450Y-289007550D03*
D16*
X527654450Y-286467550D03*
D17*
X531464450Y-289007550D03*
D16*
X534004450Y-283927550D03*
%TD*%
D18*
%TO.C,MX40*%
X505504450Y-289007550D03*
X495344450Y-289007550D03*
D16*
X496614450Y-286467550D03*
D17*
X500424450Y-289007550D03*
D16*
X502964450Y-283927550D03*
%TD*%
D18*
%TO.C,MX39*%
X486454450Y-289007550D03*
X476294450Y-289007550D03*
D16*
X477564450Y-286467550D03*
D17*
X481374450Y-289007550D03*
D16*
X483914450Y-283927550D03*
%TD*%
D18*
%TO.C,MX38*%
X467404450Y-289007550D03*
X457244450Y-289007550D03*
D16*
X458514450Y-286467550D03*
D17*
X462324450Y-289007550D03*
D16*
X464864450Y-283927550D03*
%TD*%
D18*
%TO.C,MX37*%
X448354450Y-289007550D03*
X438194450Y-289007550D03*
D16*
X439464450Y-286467550D03*
D17*
X443274450Y-289007550D03*
D16*
X445814450Y-283927550D03*
%TD*%
D18*
%TO.C,MX36*%
X429304450Y-289007550D03*
X419144450Y-289007550D03*
D16*
X420414450Y-286467550D03*
D17*
X424224450Y-289007550D03*
D16*
X426764450Y-283927550D03*
%TD*%
D18*
%TO.C,MX35*%
X410254450Y-289007550D03*
X400094450Y-289007550D03*
D16*
X401364450Y-286467550D03*
D17*
X405174450Y-289007550D03*
D16*
X407714450Y-283927550D03*
%TD*%
D18*
%TO.C,MX34*%
X391204450Y-289007550D03*
X381044450Y-289007550D03*
D16*
X382314450Y-286467550D03*
D17*
X386124450Y-289007550D03*
D16*
X388664450Y-283927550D03*
%TD*%
D18*
%TO.C,MX33*%
X372154450Y-289007550D03*
X361994450Y-289007550D03*
D16*
X363264450Y-286467550D03*
D17*
X367074450Y-289007550D03*
D16*
X369614450Y-283927550D03*
%TD*%
D18*
%TO.C,MX32*%
X353104450Y-289007550D03*
X342944450Y-289007550D03*
D16*
X344214450Y-286467550D03*
D17*
X348024450Y-289007550D03*
D16*
X350564450Y-283927550D03*
%TD*%
D18*
%TO.C,MX31*%
X334054450Y-289007550D03*
X323894450Y-289007550D03*
D16*
X325164450Y-286467550D03*
D17*
X328974450Y-289007550D03*
D16*
X331514450Y-283927550D03*
%TD*%
D18*
%TO.C,MX30*%
X315004450Y-289007550D03*
X304844450Y-289007550D03*
D16*
X306114450Y-286467550D03*
D17*
X309924450Y-289007550D03*
D16*
X312464450Y-283927550D03*
%TD*%
D18*
%TO.C,MX29*%
X288810700Y-289007550D03*
X278650700Y-289007550D03*
D16*
X279920700Y-286467550D03*
D17*
X283730700Y-289007550D03*
D16*
X286270700Y-283927550D03*
%TD*%
D18*
%TO.C,MX28*%
X543604450Y-269957550D03*
X533444450Y-269957550D03*
D16*
X534714450Y-267417550D03*
D17*
X538524450Y-269957550D03*
D16*
X541064450Y-264877550D03*
%TD*%
D18*
%TO.C,MX27*%
X519791950Y-269957550D03*
X509631950Y-269957550D03*
D16*
X510901950Y-267417550D03*
D17*
X514711950Y-269957550D03*
D16*
X517251950Y-264877550D03*
%TD*%
D18*
%TO.C,MX26*%
X500741950Y-269957550D03*
X490581950Y-269957550D03*
D16*
X491851950Y-267417550D03*
D17*
X495661950Y-269957550D03*
D16*
X498201950Y-264877550D03*
%TD*%
D18*
%TO.C,MX25*%
X481691950Y-269957550D03*
X471531950Y-269957550D03*
D16*
X472801950Y-267417550D03*
D17*
X476611950Y-269957550D03*
D16*
X479151950Y-264877550D03*
%TD*%
D18*
%TO.C,MX24*%
X462641950Y-269957550D03*
X452481950Y-269957550D03*
D16*
X453751950Y-267417550D03*
D17*
X457561950Y-269957550D03*
D16*
X460101950Y-264877550D03*
%TD*%
D18*
%TO.C,MX23*%
X443591950Y-269957550D03*
X433431950Y-269957550D03*
D16*
X434701950Y-267417550D03*
D17*
X438511950Y-269957550D03*
D16*
X441051950Y-264877550D03*
%TD*%
D18*
%TO.C,MX22*%
X424541950Y-269957550D03*
X414381950Y-269957550D03*
D16*
X415651950Y-267417550D03*
D17*
X419461950Y-269957550D03*
D16*
X422001950Y-264877550D03*
%TD*%
D18*
%TO.C,MX21*%
X405491950Y-269957550D03*
X395331950Y-269957550D03*
D16*
X396601950Y-267417550D03*
D17*
X400411950Y-269957550D03*
D16*
X402951950Y-264877550D03*
%TD*%
D18*
%TO.C,MX20*%
X386441950Y-269957550D03*
X376281950Y-269957550D03*
D16*
X377551950Y-267417550D03*
D17*
X381361950Y-269957550D03*
D16*
X383901950Y-264877550D03*
%TD*%
D18*
%TO.C,MX19*%
X367391950Y-269957550D03*
X357231950Y-269957550D03*
D16*
X358501950Y-267417550D03*
D17*
X362311950Y-269957550D03*
D16*
X364851950Y-264877550D03*
%TD*%
D18*
%TO.C,MX18*%
X348341950Y-269957550D03*
X338181950Y-269957550D03*
D16*
X339451950Y-267417550D03*
D17*
X343261950Y-269957550D03*
D16*
X345801950Y-264877550D03*
%TD*%
D18*
%TO.C,MX17*%
X329291950Y-269957550D03*
X319131950Y-269957550D03*
D16*
X320401950Y-267417550D03*
D17*
X324211950Y-269957550D03*
D16*
X326751950Y-264877550D03*
%TD*%
D18*
%TO.C,MX16*%
X310241950Y-269957550D03*
X300081950Y-269957550D03*
D16*
X301351950Y-267417550D03*
D17*
X305161950Y-269957550D03*
D16*
X307701950Y-264877550D03*
%TD*%
D17*
%TO.C,MX14*%
X521823950Y-259162550D03*
X545699950Y-259162550D03*
D19*
X521823950Y-243922550D03*
X545699950Y-243922550D03*
D18*
X538841950Y-250907550D03*
X528681950Y-250907550D03*
D16*
X529951950Y-248367550D03*
D17*
X533761950Y-250907550D03*
D16*
X536301950Y-245827550D03*
%TD*%
D18*
%TO.C,MX13*%
X510266950Y-250907550D03*
X500106950Y-250907550D03*
D16*
X501376950Y-248367550D03*
D17*
X505186950Y-250907550D03*
D16*
X507726950Y-245827550D03*
%TD*%
D18*
%TO.C,MX12*%
X491216950Y-250907550D03*
X481056950Y-250907550D03*
D16*
X482326950Y-248367550D03*
D17*
X486136950Y-250907550D03*
D16*
X488676950Y-245827550D03*
%TD*%
D18*
%TO.C,MX11*%
X472166950Y-250907550D03*
X462006950Y-250907550D03*
D16*
X463276950Y-248367550D03*
D17*
X467086950Y-250907550D03*
D16*
X469626950Y-245827550D03*
%TD*%
D18*
%TO.C,MX10*%
X453116950Y-250907550D03*
X442956950Y-250907550D03*
D16*
X444226950Y-248367550D03*
D17*
X448036950Y-250907550D03*
D16*
X450576950Y-245827550D03*
%TD*%
D18*
%TO.C,MX9*%
X434066950Y-250907550D03*
X423906950Y-250907550D03*
D16*
X425176950Y-248367550D03*
D17*
X428986950Y-250907550D03*
D16*
X431526950Y-245827550D03*
%TD*%
D18*
%TO.C,MX7*%
X395966950Y-250907550D03*
X385806950Y-250907550D03*
D16*
X387076950Y-248367550D03*
D17*
X390886950Y-250907550D03*
D16*
X393426950Y-245827550D03*
%TD*%
D18*
%TO.C,MX6*%
X376916950Y-250907550D03*
X366756950Y-250907550D03*
D16*
X368026950Y-248367550D03*
D17*
X371836950Y-250907550D03*
D16*
X374376950Y-245827550D03*
%TD*%
D18*
%TO.C,MX5*%
X357866950Y-250907550D03*
X347706950Y-250907550D03*
D16*
X348976950Y-248367550D03*
D17*
X352786950Y-250907550D03*
D16*
X355326950Y-245827550D03*
%TD*%
D18*
%TO.C,MX4*%
X338816950Y-250907550D03*
X328656950Y-250907550D03*
D16*
X329926950Y-248367550D03*
D17*
X333736950Y-250907550D03*
D16*
X336276950Y-245827550D03*
%TD*%
D18*
%TO.C,MX3*%
X319766950Y-250907550D03*
X309606950Y-250907550D03*
D16*
X310876950Y-248367550D03*
D17*
X314686950Y-250907550D03*
D16*
X317226950Y-245827550D03*
%TD*%
D18*
%TO.C,MX2*%
X300716950Y-250907550D03*
X290556950Y-250907550D03*
D16*
X291826950Y-248367550D03*
D17*
X295636950Y-250907550D03*
D16*
X298176950Y-245827550D03*
%TD*%
D18*
%TO.C,MX1*%
X281666950Y-250907550D03*
X271506950Y-250907550D03*
D16*
X272776950Y-248367550D03*
D17*
X276586950Y-250907550D03*
D16*
X279126950Y-245827550D03*
%TD*%
D24*
%TO.C,J1*%
X268649450Y-262020050D03*
D25*
X268649450Y-264560050D03*
X268649450Y-267100050D03*
X268649450Y-269640050D03*
X268649450Y-272180050D03*
X268649450Y-274720050D03*
X268649450Y-277260050D03*
X268649450Y-279800050D03*
X268649450Y-282340050D03*
X268649450Y-284880050D03*
X268649450Y-287420050D03*
X268649450Y-289960050D03*
%TD*%
M02*
