M48
; DRILL file {KiCad (5.1.4)-1} date 6/13/2020 2:43:21 AM
; FORMAT={-:-/ absolute / inch / decimal}
; #@! TF.CreationDate,2020-06-13T02:43:21-04:00
; #@! TF.GenerationSoftware,Kicad,Pcbnew,(5.1.4)-1
; #@! TF.FileFunction,NonPlated,1,2,NPTH
FMAT,2
INCH
T1C0.0689
T2C0.1181
T3C0.1200
T4C0.1570
%
G90
G05
T1
X14.8142Y-10.6282
X15.2142Y-10.6282
X12.1892Y-9.8782
X12.5892Y-9.8782
X20.158Y-12.1282
X20.558Y-12.1282
X11.8142Y-10.6282
X12.2142Y-10.6282
X16.1268Y-12.1282
X16.5267Y-12.1282
X19.3143Y-10.6282
X19.7142Y-10.6282
X21.1893Y-12.8782
X21.5892Y-12.8782
X12.7517Y-11.3782
X13.1517Y-11.3782
X19.6893Y-9.8782
X20.0892Y-9.8782
X19.1268Y-12.1282
X19.5267Y-12.1282
X19.5018Y-11.3782
X19.9017Y-11.3782
X17.4393Y-9.8782
X17.8392Y-9.8782
X10.783Y-12.8782
X11.183Y-12.8782
X12.3767Y-12.1282
X12.7767Y-12.1282
X18.283Y-12.8782
X18.683Y-12.8782
X16.5018Y-11.3782
X16.9017Y-11.3782
X18.3768Y-12.1282
X18.7767Y-12.1282
X13.8767Y-12.1282
X14.2767Y-12.1282
X17.2518Y-11.3782
X17.6517Y-11.3782
X15.1892Y-9.8782
X15.5892Y-9.8782
X18.9393Y-9.8782
X19.3392Y-9.8782
X16.6893Y-9.8782
X17.0892Y-9.8782
X14.0642Y-10.6282
X14.4642Y-10.6282
X15.9392Y-9.8782
X16.3392Y-9.8782
X15.5642Y-10.6282
X15.9642Y-10.6282
X14.6267Y-12.1282
X15.0267Y-12.1282
X12.9392Y-9.8782
X13.3392Y-9.8782
X17.8143Y-10.6282
X18.2142Y-10.6282
X12.658Y-12.8782
X13.058Y-12.8782
X15.658Y-12.8782
X16.058Y-12.8782
X21.9393Y-10.6282
X22.3392Y-10.6282
X18.1893Y-9.8782
X18.5892Y-9.8782
X16.8768Y-12.1282
X17.2767Y-12.1282
X15.4705Y-12.8782
X15.8705Y-12.8782
X14.2517Y-11.3782
X14.6517Y-11.3782
X21.0018Y-10.6282
X21.4017Y-10.6282
X21.1893Y-12.1282
X21.5892Y-12.1282
X10.9705Y-11.3782
X11.3705Y-11.3782
X20.4393Y-12.8782
X20.8392Y-12.8782
X12.0017Y-11.3782
X12.4017Y-11.3782
X19.2205Y-12.8782
X19.6205Y-12.8782
X18.7518Y-11.3782
X19.1517Y-11.3782
X13.6892Y-9.8782
X14.0892Y-9.8782
X16.3143Y-10.6282
X16.7142Y-10.6282
X15.7517Y-11.3782
X16.1517Y-11.3782
X10.6892Y-9.8782
X11.0892Y-9.8782
X20.0643Y-10.6282
X20.4642Y-10.6282
X14.4392Y-9.8782
X14.8392Y-9.8782
X17.0643Y-10.6282
X17.4642Y-10.6282
X10.8767Y-10.6282
X11.2767Y-10.6282
X20.8143Y-9.8782
X21.2142Y-9.8782
X21.9393Y-12.1282
X22.3392Y-12.1282
X11.4392Y-9.8782
X11.8392Y-9.8782
X14.158Y-12.8782
X14.558Y-12.8782
X13.3142Y-10.6282
X13.7142Y-10.6282
X11.7205Y-12.8782
X12.1205Y-12.8782
X16.9705Y-12.8782
X17.3705Y-12.8782
X11.158Y-12.1282
X11.558Y-12.1282
X18.5643Y-10.6282
X18.9642Y-10.6282
X21.9393Y-12.8782
X22.3392Y-12.8782
X13.5017Y-11.3782
X13.9017Y-11.3782
X15.3767Y-12.1282
X15.7767Y-12.1282
X20.7238Y-11.3782
X21.1238Y-11.3782
X17.6268Y-12.1282
X18.0267Y-12.1282
X13.1267Y-12.1282
X13.5267Y-12.1282
X21.9393Y-11.3782
X22.3392Y-11.3782
X18.0018Y-11.3782
X18.4017Y-11.3782
X12.5642Y-10.6282
X12.9642Y-10.6282
X15.0017Y-11.3782
X15.4017Y-11.3782
T2
X17.4892Y-9.7782
X17.7392Y-9.6783
X10.833Y-12.7782
X11.083Y-12.6783
X12.4268Y-12.0282
X12.6768Y-11.9283
X18.333Y-12.7782
X18.583Y-12.6783
X16.5517Y-11.2782
X16.8017Y-11.1783
X18.4267Y-12.0282
X18.6767Y-11.9283
X13.9268Y-12.0282
X14.1768Y-11.9283
X17.3017Y-11.2782
X17.5517Y-11.1783
X15.2393Y-9.7782
X15.4893Y-9.6783
X18.9892Y-9.7782
X19.2392Y-9.6783
X16.7392Y-9.7782
X16.9892Y-9.6783
X14.1143Y-10.5282
X14.3643Y-10.4283
X15.9893Y-9.7782
X16.2392Y-9.6783
X15.6143Y-10.5282
X15.8643Y-10.4283
X14.6768Y-12.0282
X14.9268Y-11.9283
X12.9893Y-9.7782
X13.2393Y-9.6783
X17.8642Y-10.5282
X18.1142Y-10.4283
X12.708Y-12.7782
X12.958Y-12.6783
X15.758Y-13.0782
X16.008Y-12.9782
X21.9892Y-10.5282
X22.2392Y-10.4283
X18.2392Y-9.7782
X18.4892Y-9.6783
X16.9267Y-12.0282
X17.1767Y-11.9283
X15.5205Y-12.7782
X15.7705Y-12.6783
X14.3018Y-11.2782
X14.5518Y-11.1783
X21.0517Y-10.5282
X21.3017Y-10.4283
X21.2392Y-12.0282
X21.4892Y-11.9283
X11.0205Y-11.2782
X11.2705Y-11.1783
X20.4892Y-12.7782
X20.7392Y-12.6783
X12.0518Y-11.2782
X12.3018Y-11.1783
X19.2705Y-12.7782
X19.5205Y-12.6783
X18.8017Y-11.2782
X19.0517Y-11.1783
X13.7393Y-9.7782
X13.9893Y-9.6783
X16.3642Y-10.5282
X16.6142Y-10.4283
X15.8018Y-11.2782
X16.0517Y-11.1783
X10.7393Y-9.7782
X10.9893Y-9.6783
X20.1142Y-10.5282
X20.3642Y-10.4283
X14.4893Y-9.7782
X14.7393Y-9.6783
X17.1142Y-10.5282
X17.3642Y-10.4283
X10.9268Y-10.5282
X11.1768Y-10.4283
X20.8642Y-9.7782
X21.1142Y-9.6783
X21.9892Y-12.0282
X22.2392Y-11.9283
X11.4893Y-9.7782
X11.7393Y-9.6783
X14.258Y-13.0782
X14.508Y-12.9782
X13.3643Y-10.5282
X13.6143Y-10.4283
X11.7705Y-12.7782
X12.0205Y-12.6783
X17.0705Y-13.0782
X17.3205Y-12.9782
X11.208Y-12.0282
X11.458Y-11.9283
X18.6142Y-10.5282
X18.8642Y-10.4283
X21.9892Y-12.7782
X22.2392Y-12.6783
X13.5518Y-11.2782
X13.8018Y-11.1783
X15.4268Y-12.0282
X15.6768Y-11.9283
X20.7738Y-11.2782
X21.0238Y-11.1783
X17.6767Y-12.0282
X17.9267Y-11.9283
X13.1768Y-12.0282
X13.4268Y-11.9283
X21.9892Y-11.2782
X22.2392Y-11.1783
X18.0517Y-11.2782
X18.3017Y-11.1783
X12.6143Y-10.5282
X12.8643Y-10.4283
X15.0518Y-11.2782
X15.3018Y-11.1783
X14.8643Y-10.5282
X15.1143Y-10.4283
X12.2393Y-9.7782
X12.4893Y-9.6783
X20.208Y-12.0282
X20.458Y-11.9283
X11.8643Y-10.5282
X12.1143Y-10.4283
X16.1767Y-12.0282
X16.4267Y-11.9283
X19.3642Y-10.5282
X19.6142Y-10.4283
X21.2392Y-12.7782
X21.4892Y-12.6783
X12.8018Y-11.2782
X13.0518Y-11.1783
X19.7392Y-9.7782
X19.9892Y-9.6783
X19.1767Y-12.0282
X19.4267Y-11.9283
X19.5517Y-11.2782
X19.8017Y-11.1783
T3
X13.702Y-13.1532
X17.639Y-13.1532
X20.5442Y-9.6032
X21.4842Y-9.6032
X13.888Y-13.1532
X14.828Y-13.1532
X16.7005Y-13.1532
X17.6405Y-13.1532
X10.888Y-11.8532
X11.828Y-11.8532
X20.4538Y-11.1032
X21.3938Y-11.1032
T4
X17.4518Y-11.3782
X15.3892Y-9.8782
X19.1393Y-9.8782
X16.8893Y-9.8782
X14.2643Y-10.6282
X16.1393Y-9.8782
X15.7642Y-10.6282
X14.8268Y-12.1282
X13.1393Y-9.8782
X18.0143Y-10.6282
X12.858Y-12.8782
X15.858Y-12.8782
X22.1393Y-10.6282
X18.3893Y-9.8782
X17.0768Y-12.1282
X13.702Y-12.5533
X15.6705Y-12.8782
X17.639Y-12.5533
X14.4518Y-11.3782
X21.2018Y-10.6282
X21.3893Y-12.1282
X11.1705Y-11.3782
X20.6393Y-12.8782
X12.2018Y-11.3782
X19.4205Y-12.8782
X18.9518Y-11.3782
X13.8893Y-9.8782
X16.5143Y-10.6282
X15.9517Y-11.3782
X10.8893Y-9.8782
X20.2643Y-10.6282
X14.6393Y-9.8782
X17.2643Y-10.6282
X11.0768Y-10.6282
X20.5442Y-10.2033
X21.0143Y-9.8782
X21.4842Y-10.2033
X22.1393Y-12.1282
X11.6393Y-9.8782
X13.888Y-12.5533
X14.358Y-12.8782
X14.828Y-12.5533
X13.5143Y-10.6282
X11.9205Y-12.8782
X16.7005Y-12.5533
X17.1705Y-12.8782
X17.6405Y-12.5533
X10.888Y-12.4533
X11.358Y-12.1282
X11.828Y-12.4533
X18.7643Y-10.6282
X22.1393Y-12.8782
X13.7018Y-11.3782
X15.5767Y-12.1282
X20.4538Y-11.7033
X20.9238Y-11.3782
X21.3938Y-11.7033
X17.8268Y-12.1282
X13.3268Y-12.1282
X22.1393Y-11.3782
X18.2018Y-11.3782
X12.7643Y-10.6282
X15.2018Y-11.3782
X15.0143Y-10.6282
X12.3893Y-9.8782
X20.358Y-12.1282
X12.0143Y-10.6282
X16.3268Y-12.1282
X19.5143Y-10.6282
X21.3893Y-12.8782
X12.9518Y-11.3782
X19.8893Y-9.8782
X19.3268Y-12.1282
X19.7018Y-11.3782
X17.6393Y-9.8782
X10.983Y-12.8782
X12.5768Y-12.1282
X18.483Y-12.8782
X16.7018Y-11.3782
X18.5768Y-12.1282
X14.0768Y-12.1282
T0
M30
