M48
; DRILL file {KiCad (5.1.4)-1} date 6/13/2020 2:43:21 AM
; FORMAT={-:-/ absolute / inch / decimal}
; #@! TF.CreationDate,2020-06-13T02:43:21-04:00
; #@! TF.GenerationSoftware,Kicad,Pcbnew,(5.1.4)-1
; #@! TF.FileFunction,Plated,1,2,PTH
FMAT,2
INCH
T1C0.0118
T2C0.0157
T3C0.0236
T4C0.0300
T5C0.0394
%
G90
G05
T1
X10.781Y-11.6165
X10.7978Y-10.6067
X10.7978Y-11.0623
X10.811Y-11.5125
X10.848Y-11.1675
X10.972Y-11.514
X11.17Y-11.1085
X11.2019Y-9.957
X11.2125Y-10.89
X11.2175Y-9.708
X11.2295Y-9.957
X11.2655Y-10.911
X11.3065Y-9.672
X11.3388Y-9.7093
X11.3425Y-11.701
X11.4205Y-9.672
X11.447Y-10.58
X11.4735Y-10.7905
X11.4785Y-11.698
X11.5245Y-11.189
X11.5365Y-10.544
X11.5425Y-11.6
X11.5565Y-10.989
X11.565Y-10.935
X11.601Y-10.991
X11.6145Y-10.605
X11.6155Y-10.507
X11.6325Y-12.583
X11.6545Y-12.352
X11.7005Y-10.606
X11.702Y-10.8495
X11.7245Y-11.77
X11.7452Y-11.7474
X11.761Y-10.9775
X11.7689Y-11.7296
X11.7805Y-10.421
X11.7921Y-11.707
X11.8133Y-11.6844
X11.8195Y-10.724
X11.8365Y-11.6617
X11.9015Y-10.795
X11.9475Y-10.197
X11.951Y-12.084
X11.9715Y-11.601
X12.0535Y-10.986
X12.1105Y-9.889
X12.1165Y-10.987
X12.1405Y-10.9644
X12.1656Y-10.9417
X12.1955Y-10.9191
X12.2978Y-12.0282
X12.3925Y-10.851
X12.4385Y-10.284
X12.4545Y-11.011
X12.4865Y-10.416
X12.5225Y-10.355
X12.5685Y-10.269
X12.5805Y-12.682
X12.6185Y-11.598
X12.6405Y-12.35
X12.7095Y-11.5265
X12.7245Y-10.851
X12.7415Y-11.598
X12.867Y-13.049
X12.9035Y-12.297
X12.9455Y-10.238
X12.9495Y-12.347
X13.0655Y-10.361
X13.0775Y-12.347
X13.1165Y-10.851
X13.1485Y-11.011
X13.149Y-13.1405
X13.2405Y-13.074
X13.3495Y-11.601
X13.3585Y-10.853
X13.3755Y-12.3185
X13.4835Y-11.602
X13.554Y-12.5555
X13.6945Y-10.239
X13.8395Y-10.386
X13.8935Y-10.989
X13.9315Y-10.849
X14.0635Y-11.6
X14.0945Y-10.847
X14.1225Y-10.142
X14.1755Y-12.304
X14.2655Y-11.6
X14.3615Y-9.883
X14.6445Y-10.851
X14.6475Y-12.863
X14.6505Y-10.967
X14.7375Y-10.387
X14.8185Y-11.601
X14.8345Y-10.849
X15.0095Y-11.601
X15.1485Y-10.199
X15.171Y-10.063
X15.3635Y-10.404
X15.3985Y-10.847
X15.3985Y-12.617
X15.4135Y-10.966
X15.5785Y-10.847
X15.5895Y-11.599
X15.7175Y-12.387
X15.7555Y-11.598
X15.9015Y-10.201
X16.1285Y-10.421
X16.1745Y-10.85
X16.1815Y-10.961
X16.2885Y-11.599
X16.3605Y-10.85
X16.3605Y-10.85
X16.5325Y-11.597
X16.6105Y-9.907
X16.7975Y-12.18
X16.9195Y-10.85
X16.9885Y-10.418
X17.02Y-12.5705
X17.0545Y-10.85
X17.0775Y-11.599
X17.2035Y-11.77
X17.2545Y-11.602
X17.3845Y-12.761
X17.4415Y-10.219
X17.5915Y-12.349
X17.5945Y-10.374
X17.6835Y-10.85
X17.7955Y-10.85
X17.8205Y-11.6
X17.8385Y-12.412
X17.8705Y-11.748
X17.9035Y-12.349
X18.0315Y-11.6
X18.0545Y-12.629
X18.1585Y-12.204
X18.2395Y-10.24
X18.2405Y-10.123
X18.3545Y-10.354
X18.4325Y-10.85
X18.4555Y-12.206
X18.5535Y-10.85
X18.6035Y-11.6
X18.6115Y-11.726
X18.7755Y-11.602
X18.7845Y-12.436
X18.8595Y-9.87
X18.9645Y-12.615
X19.1175Y-12.304
X19.1505Y-10.849
X19.2295Y-10.43
X19.3115Y-10.85
X19.4435Y-11.6
X19.4715Y-10.0255
X19.5955Y-11.704
X19.6605Y-11.6
X19.6775Y-10.221
X19.7375Y-10.021
X19.8465Y-10.391
X20.0105Y-10.85
X20.0775Y-12.157
X20.1335Y-12.657
X20.1485Y-10.85
X20.4425Y-11.408
X20.5215Y-11.6
X20.6415Y-12.259
X20.7345Y-9.857
X20.7925Y-11.6
X20.8495Y-10.523
X21.0995Y-12.632
X21.2435Y-10.2205
X21.344Y-12.446
X21.4495Y-12.433
X21.4505Y-12.273
X21.4785Y-12.477
X21.5165Y-10.355
X21.5585Y-12.497
X21.5615Y-10.3085
X21.6515Y-12.295
X21.6885Y-10.3564
X21.7295Y-12.606
X21.7485Y-11.524
X21.8025Y-12.274
T2
X11.3575Y-9.944
X11.515Y-11.285
X11.7045Y-9.495
X11.7375Y-10.346
X11.7535Y-10.64
X12.0575Y-11.152
X12.49Y-12.445
X13.6265Y-12.238
X14.1405Y-12.237
X14.5Y-12.305
X14.885Y-12.4
X14.89Y-12.315
X15.165Y-12.38
X15.8865Y-12.209
X16.4155Y-12.229
X16.48Y-12.46
X21.6275Y-11.347
X22.0035Y-10.97
X11.2782Y-9.5609
X11.2782Y-9.614
X11.3117Y-9.5609
X11.3117Y-9.614
X11.3452Y-9.5609
X11.3452Y-9.614
X11.3786Y-9.5609
X11.3786Y-9.614
X11.4121Y-9.5609
X11.4121Y-9.614
X11.4456Y-9.5609
X11.4456Y-9.614
X11.479Y-9.5609
X11.479Y-9.614
X11.5125Y-9.5609
X11.5125Y-9.614
T4
X10.585Y-11.799
X10.585Y-11.999
X10.59Y-11.699
X10.59Y-11.899
X10.59Y-12.099
X10.685Y-11.799
X10.685Y-11.999
X10.69Y-11.699
X10.69Y-11.899
X10.69Y-12.099
T5
X10.5768Y-10.3157
X10.5768Y-10.4157
X10.5768Y-10.5158
X10.5768Y-10.6158
X10.5768Y-10.7157
X10.5768Y-10.8157
X10.5768Y-10.9157
X10.5768Y-11.0158
X10.5768Y-11.1158
X10.5768Y-11.2157
X10.5768Y-11.3157
X10.5768Y-11.4157
T3
G00X11.2251Y-9.4581
M15
G01X11.2251Y-9.4266
M16
G05
G00X11.2251Y-9.6049
M15
G01X11.2251Y-9.5459
M16
G05
G00X11.5656Y-9.4581
M15
G01X11.5656Y-9.4266
M16
G05
G00X11.5656Y-9.6049
M15
G01X11.5656Y-9.5459
M16
G05
T0
M30
