M48
; DRILL file {KiCad (5.1.4)-1} date 06/18/20 19:46:49
; FORMAT={-:-/ absolute / inch / decimal}
; #@! TF.CreationDate,2020-06-18T19:46:49-04:00
; #@! TF.GenerationSoftware,Kicad,Pcbnew,(5.1.4)-1
; #@! TF.FileFunction,Plated,1,2,PTH
FMAT,2
INCH
T1C0.0118
T2C0.0157
T3C0.0236
T4C0.0394
T5C0.0400
%
G90
G05
T1
X10.995Y-9.95
X11.125Y-10.03
X11.16Y-10.03
X11.2225Y-11.5656
X11.2375Y-11.5026
X11.255Y-10.06
X11.27Y-11.5026
X11.3116Y-11.5266
X11.3374Y-9.9841
X11.415Y-10.9083
X11.44Y-10.8886
X11.51Y-11.28
X11.575Y-10.9075
X11.5927Y-11.405
X11.6124Y-11.485
X11.625Y-10.8825
X11.68Y-10.92
X11.695Y-10.99
X11.74Y-10.9525
X11.8273Y-11.23
X11.87Y-10.275
X11.9175Y-10.36
X11.94Y-10.8
X11.9775Y-11.485
X12.015Y-12.525
X12.065Y-10.275
X12.09Y-11.052
X12.0975Y-10.7167
X12.1025Y-10.165
X12.175Y-10.1675
X12.195Y-10.82
X12.2442Y-10.4283
X12.3125Y-10.5625
X12.4525Y-10.275
X12.515Y-10.095
X12.66Y-10.09
X12.735Y-10.24
X13.1742Y-12.9532
X13.43Y-13.07
X13.53Y-13.075
X13.945Y-12.95
X14.33Y-10.25
X14.64Y-10.215
X14.675Y-12.48
X14.78Y-12.76
X14.8Y-10.235
X14.955Y-12.74
X15.055Y-12.99
X15.245Y-13.055
X15.445Y-13.01
X16.495Y-12.465
X16.65Y-10.255
X16.85Y-10.21
X17.1728Y-11.6261
X17.9228Y-11.6035
X18.6728Y-11.5808
X18.81Y-10.13
X19.005Y-10.25
X19.015Y-12.465
X19.195Y-10.2
X19.4228Y-11.5582
X20.6449Y-11.5356
X20.81Y-12.265
X21.02Y-12.235
X21.0276Y-12.1425
X21.055Y-10.215
X21.06Y-12.47
X21.0875Y-11.5129
X21.1175Y-12.2274
T2
X10.6103Y-9.7782
X10.7041Y-12.7782
X10.78Y-9.485
X10.8Y-10.53
X10.89Y-11.27
X11.08Y-12.025
X11.1192Y-9.6783
X11.215Y-9.795
X11.2879Y-9.6629
X11.3603Y-9.7782
X11.39Y-9.915
X11.475Y-10.75
X11.485Y-9.605
X11.565Y-11.185
X11.6416Y-12.7782
X11.735Y-10.13
X11.7353Y-10.5282
X11.855Y-10.7175
X11.885Y-9.555
X11.9228Y-11.2782
X12.0438Y-10.9825
X12.1103Y-9.7782
X12.22Y-10.982
X12.2978Y-12.0282
X12.4853Y-10.5282
X12.505Y-10.21
X12.5791Y-12.7782
X12.615Y-11.04
X12.675Y-11.28
X12.805Y-10.21
X12.8603Y-9.7782
X13.05Y-12.03
X13.2353Y-10.5282
X13.3745Y-11.0105
X13.4228Y-11.2782
X13.6103Y-9.7782
X13.7978Y-12.0282
X13.9853Y-10.5282
X14.02Y-10.94
X14.1728Y-11.2782
X14.3603Y-9.7782
X14.5478Y-12.0282
X14.6369Y-12.9782
X14.7353Y-10.5282
X14.755Y-10.9201
X14.9228Y-11.2782
X15.1103Y-9.7782
X15.2978Y-12.0282
X15.3916Y-12.7782
X15.4853Y-10.5282
X15.4853Y-10.9047
X15.6728Y-11.2782
X15.8603Y-9.7782
X16.0478Y-12.0282
X16.1369Y-12.9782
X16.2353Y-10.5282
X16.2353Y-10.8703
X16.4228Y-11.2782
X16.6103Y-9.7782
X16.7978Y-12.0282
X16.9853Y-10.5282
X17.1728Y-11.2782
X17.3603Y-9.7782
X17.4494Y-12.9782
X17.5478Y-12.0282
X17.7353Y-10.5282
X17.9228Y-11.2782
X18.1103Y-9.7782
X18.2041Y-12.7782
X18.2978Y-12.0282
X18.4853Y-10.5282
X18.6728Y-11.2782
X18.8603Y-9.7782
X19.0478Y-12.0282
X19.1416Y-12.7782
X19.2353Y-10.5282
X19.4228Y-11.2782
X19.6103Y-9.7782
X19.9853Y-10.5282
X20.0791Y-12.0282
X20.3603Y-12.7782
X20.6449Y-11.2782
X20.7353Y-9.7782
X20.9228Y-10.5282
X21.1103Y-12.0282
X21.1103Y-12.7782
X21.67Y-10.74
X21.795Y-10.74
X21.8603Y-10.5282
X21.8603Y-11.2782
X21.8603Y-12.0282
X21.8603Y-12.7782
X11.2846Y-9.485
X11.2846Y-9.5381
X11.3181Y-9.485
X11.3181Y-9.5381
X11.3515Y-9.485
X11.3515Y-9.5381
X11.385Y-9.485
X11.385Y-9.5381
X11.4185Y-9.485
X11.4185Y-9.5381
X11.4519Y-9.485
X11.4519Y-9.5381
X11.4854Y-9.485
X11.4854Y-9.5381
X11.5189Y-9.485
X11.5189Y-9.5381
T4
X10.5768Y-10.3157
X10.5768Y-10.4157
X10.5768Y-10.5158
X10.5768Y-10.6158
X10.5768Y-10.7157
X10.5768Y-10.8157
X10.5768Y-10.9157
X10.5768Y-11.0158
X10.5768Y-11.1158
X10.5768Y-11.2157
X10.5768Y-11.3157
X10.5768Y-11.4157
T5
X13.3293Y-12.8782
X13.3293Y-12.9782
X13.4292Y-12.8882
X13.4292Y-12.9882
X13.5292Y-12.8782
X13.5292Y-12.9782
T3
G00X11.2315Y-9.3822
M15
G01X11.2315Y-9.3507
M16
G05
G00X11.2315Y-9.5291
M15
G01X11.2315Y-9.47
M16
G05
G00X11.572Y-9.3822
M15
G01X11.572Y-9.3507
M16
G05
G00X11.572Y-9.5291
M15
G01X11.572Y-9.47
M16
G05
T0
M30
